<?xml version="1.0" encoding="UTF-8"?>
<!-- (c) Carrd Inc. All rights reserved. All logos and trademarks are property of their respective owners. -->
<svg xmlns="http://www.w3.org/2000/svg" version="1.1" xmlns:xlink="http://www.w3.org/1999/xlink" viewBox="0 0 40 40" display="none" width="0" height="0">
	<symbol id="linkedin" viewBox="0 0 40 40"><path d="M12.1,13.8v19.1H5.7V13.8C5.7,13.8,12.1,13.8,12.1,13.8z M12.5,7.9c0,0.9-0.3,1.7-1,2.4c-0.7,0.6-1.5,0.9-2.6,0.9h0 c-1.1,0-1.9-0.3-2.5-0.9c-0.6-0.6-1-1.4-1-2.4c0-1,0.3-1.7,1-2.4S7.9,4.6,9,4.6s1.9,0.3,2.6,0.9S12.5,6.9,12.5,7.9z M35,22v11h-6.4 V22.7c0-1.4-0.3-2.4-0.8-3.2c-0.5-0.8-1.3-1.1-2.4-1.1c-0.8,0-1.5,0.2-2,0.7c-0.5,0.4-1,1-1.2,1.7c-0.1,0.4-0.2,0.9-0.2,1.6v10.7 h-6.4c0-5.1,0-9.3,0-12.5s0-5.1,0-5.7l0-0.9H22v2.8h0c0.3-0.4,0.5-0.8,0.8-1.1c0.3-0.3,0.6-0.6,1.1-1c0.5-0.4,1-0.6,1.7-0.8 c0.7-0.2,1.4-0.3,2.2-0.3c2.2,0,4,0.7,5.3,2.2C34.4,17,35,19.1,35,22L35,22z"/></symbol>
	<symbol id="facebook" viewBox="0 0 40 40"><path d="M38,20.1c0-9.9-8.1-18-18-18S2,10.1,2,20.1s5.8,15.5,13.7,17.5v-12h-3.7v-5.5h3.7v-2.4c0-6.1,2.8-9,8.8-9s3.1.2,3.9.4v5c-.4,0-1.2,0-2.1,0-3,0-4.1,1.1-4.1,4v1.9h5.9l-1,5.5h-4.9v12.4c8.9-1.1,15.8-8.7,15.8-17.9Z"/></symbol>
	<symbol id="email" viewBox="0 0 40 40"><path d="M37.5,12.6l-17.5,11.9L2.5,12.6c-.2-.1-.3-.2-.5-.2v-2.7c0-.8.6-1.4,1.4-1.4h33.1c.8,0,1.4.6,1.4,1.4v2.7c-.2,0-.4,0-.5.2ZM19.5,26.3c.2.1.3.2.5.2s.4,0,.5-.2l17.5-11.9v16.9c0,.8-.6,1.4-1.4,1.4H3.4c-.8,0-1.4-.6-1.4-1.4V14.4l17.5,11.9Z" /></symbol>
	<symbol id="mobile" viewBox="0 0 40 40"><path d="M25.9,38.5h-11.8c-2.8,0-5-2.2-5-5V6.5c0-2.8,2.2-5,5-5h11.8c2.8,0,5,2.2,5,5v27c0,2.8-2.2,5-5,5ZM28.5,6.5c0-1.4-1.2-2.6-2.6-2.6h-11.8c-1.4,0-2.6,1.2-2.6,2.6v27c0,1.4,1.2,2.6,2.6,2.6h11.8c1.4,0,2.6-1.2,2.6-2.6V6.5ZM23.5,8.3h-6.9c-.5,0-.9-.4-.9-.9s.4-.9.9-.9h6.9c.5,0,.9.4.9.9s-.4.9-.9.9Z" /></symbol>
	<symbol id="menu-light" viewBox="0 0 40 40"><path d="M3,32.2l0-1.6c0-0.3,0.2-0.5,0.5-0.5l33-0.1c0.3,0,0.5,0.2,0.5,0.5l0,1.6c0,0.3-0.2,0.5-0.5,0.5l-33,0.1 C3.2,32.7,3,32.5,3,32.2z M3,20.8l0-1.6c0-0.3,0.2-0.5,0.5-0.5l33-0.1c0.3,0,0.5,0.2,0.5,0.5l0,1.6c0,0.3-0.2,0.5-0.5,0.5l-33,0.1 C3.2,21.3,3,21.1,3,20.8z M3,9.5l0-1.6c0-0.3,0.2-0.5,0.5-0.5l33-0.1c0.3,0,0.5,0.2,0.5,0.5l0,1.6c0,0.3-0.2,0.5-0.5,0.5L3.5,10 C3.2,10,3,9.8,3,9.5z"/></symbol>
	<symbol id="paypal" viewBox="0 0 40 40"><path d="M35.1,20.2c-1.3,5.6-5.5,8.2-11.2,8.8h-0.9c-0.7,0-1.3,0.5-1.4,1.2l-0.1,0.4l-1.1,6.8l-0.1,0.3 c-0.1,0.7-0.7,1.2-1.4,1.2h-4.7L16.6,25h2.9c8,0,13-3.9,14.6-11.2C35.4,15.4,35.6,17.6,35.1,20.2z M32.3,13.1 c-1.4,7.5-6.4,10-12.8,10h-3.2c-0.8,0-1.4,0.6-1.6,1.3l0.1-0.3l-1.7,10.8H6.3c-0.6,0-1-0.5-0.9-1.1L9.9,4.7C10,4,10.7,3.4,11.5,3.4 h11c3.8,0,6.8,0.8,8.4,2.7c1.5,1.7,1.9,3.6,1.5,6.3C32.4,12.4,32.3,12.8,32.3,13.1z"/></symbol>
	<symbol id="cancel-light" viewBox="0 0 40 40"><path d="M7.6,30.5l10.3-10.3L7.6,9.9c-0.2-0.2-0.2-0.5,0-0.7L9,7.8c0.2-0.2,0.5-0.2,0.7,0L20,18L30.3,7.8c0.2-0.2,0.5-0.2,0.7,0 l1.4,1.4c0.2,0.2,0.2,0.5,0,0.7L22.2,20.2l10.3,10.3c0.2,0.2,0.2,0.5,0,0.7L31,32.6c-0.2,0.2-0.5,0.2-0.7,0L20,22.4L9.7,32.6 c-0.2,0.2-0.5,0.2-0.7,0l-1.5-1.5C7.4,31,7.4,30.6,7.6,30.5z"/></symbol>
</svg>
